<svg width="24" height="24" viewBox="0 0 24 24" fill="none" xmlns="http://www.w3.org/2000/svg">
<path d="M18.0386 13.7029V10.5628H14.8985V9.11353H18.0386V5.97343H19.4879V9.11353H22.628V10.5628H19.4879V13.7029H18.0386ZM9.10142 11.7464C8.03861 11.7464 7.16905 11.4082 6.49272 10.7319C5.81639 10.0556 5.47823 9.18599 5.47823 8.12319C5.47823 7.06039 5.81639 6.19082 6.49272 5.51449C7.16905 4.83816 8.03861 4.5 9.10142 4.5C10.1642 4.5 11.0338 4.83816 11.7101 5.51449C12.3864 6.19082 12.7246 7.06039 12.7246 8.12319C12.7246 9.18599 12.3864 10.0556 11.7101 10.7319C11.0338 11.4082 10.1642 11.7464 9.10142 11.7464ZM1.37195 19.5V17.2295C1.37195 16.6659 1.51285 16.1546 1.79465 15.6957C2.07646 15.2367 2.48306 14.8945 3.01446 14.6691C4.22219 14.1377 5.29576 13.7633 6.23518 13.5459C7.17462 13.3285 8.12873 13.2198 9.0975 13.2198C10.0663 13.2198 11.0177 13.3285 11.9517 13.5459C12.8856 13.7633 13.9565 14.1377 15.1642 14.6691C15.6956 14.9106 16.1062 15.2568 16.3961 15.7077C16.686 16.1586 16.8309 16.6659 16.8309 17.2295V19.5H1.37195ZM2.82122 18.0507H15.3816V17.2295C15.3816 16.9718 15.3091 16.7262 15.1642 16.4928C15.0193 16.2593 14.8261 16.0862 14.5845 15.9734C13.4412 15.442 12.475 15.0918 11.686 14.9227C10.8969 14.7536 10.0354 14.6691 9.10142 14.6691C8.16744 14.6691 7.3019 14.7536 6.5048 14.9227C5.7077 15.0918 4.73749 15.442 3.59417 15.9734C3.35262 16.0862 3.16341 16.2593 3.02654 16.4928C2.88966 16.7262 2.82122 16.9718 2.82122 17.2295V18.0507ZM9.10142 10.2971C9.72944 10.2971 10.2488 10.0918 10.6594 9.68116C11.07 9.27053 11.2753 8.75121 11.2753 8.12319C11.2753 7.49517 11.07 6.97585 10.6594 6.56522C10.2488 6.15459 9.72944 5.94928 9.10142 5.94928C8.4734 5.94928 7.95407 6.15459 7.54345 6.56522C7.13282 6.97585 6.9275 7.49517 6.9275 8.12319C6.9275 8.75121 7.13282 9.27053 7.54345 9.68116C7.95407 10.0918 8.4734 10.2971 9.10142 10.2971Z" fill="#00001F"/>
</svg>
