<svg width="198" height="28" viewBox="0 0 198 28" fill="none" xmlns="http://www.w3.org/2000/svg">
<path d="M47.7988 13.9214V16.9972C52.4011 18.4745 55.9748 22.2775 57.1343 27.014H60.1545C58.8803 20.643 54.0323 15.5526 47.7988 13.9214Z" fill="#2298DF"/>
<path d="M57.0557 0.134277C55.8241 4.73325 52.3061 8.40522 47.7988 9.85632V12.9288C53.9341 11.3238 58.7296 6.36451 60.0922 0.134277H57.0557Z" fill="#2298DF"/>
<path d="M185.434 27.014H188.454C189.614 22.2775 193.187 18.4745 197.789 16.9972V13.9214C191.556 15.5526 186.708 20.643 185.434 27.014Z" fill="#2298DF"/>
<path d="M185.496 0.134277C186.859 6.36451 191.654 11.3238 197.789 12.9288V9.85632C193.282 8.40522 189.764 4.73325 188.532 0.134277H185.496Z" fill="#2298DF"/>
<path d="M66.0349 21.3537C65.0522 21.3537 64.1449 21.2489 63.3096 21.0392C62.4743 20.8296 61.7504 20.5217 61.1313 20.1188C60.5122 19.7159 60.0307 19.2147 59.6901 18.6218C59.3461 18.0289 59.1758 17.3476 59.1758 16.5811V16.1062H61.7996V16.4435C61.7996 17.2723 62.1828 17.9045 62.9493 18.3401C63.7158 18.7758 64.764 18.992 66.0972 18.992C66.9161 18.992 67.6465 18.9101 68.2918 18.7463C68.9371 18.5825 69.4448 18.3303 69.8183 17.9929C70.1917 17.6555 70.3784 17.2297 70.3784 16.7187C70.3784 15.8703 69.982 15.2643 69.1893 14.9007C68.3966 14.5371 67.2109 14.2227 65.6353 13.9573C64.8066 13.8132 64.0171 13.6265 63.2703 13.3972C62.5235 13.1679 61.8618 12.8666 61.282 12.4997C60.7022 12.1328 60.2469 11.6742 59.9161 11.1272C59.582 10.5802 59.4182 9.92178 59.4182 9.15529C59.4182 8.16277 59.713 7.32094 60.2993 6.62978C60.8889 5.93863 61.6816 5.41125 62.6872 5.04766C63.6896 4.68407 64.8066 4.50391 66.0317 4.50391C67.2567 4.50391 68.3115 4.69389 69.3171 5.07059C70.3194 5.45056 71.1252 6.00086 71.7345 6.7215C72.3438 7.44214 72.6484 8.32983 72.6484 9.38458V9.69249H70.0377V9.46319C70.0377 8.87031 69.8477 8.38224 69.4711 7.99899C69.0911 7.61575 68.5997 7.33077 67.997 7.14078C67.3943 6.95079 66.749 6.8558 66.0644 6.8558C65.4191 6.8558 64.7836 6.92459 64.1613 7.06217C63.5356 7.19974 63.0214 7.42903 62.6119 7.74677C62.2025 8.06451 61.9994 8.49689 61.9994 9.05047C61.9994 9.60405 62.1893 10.0463 62.5759 10.3771C62.9591 10.7112 63.5029 10.9798 64.2039 11.1894C64.9048 11.3991 65.7303 11.5923 66.6835 11.766C67.5319 11.9199 68.3344 12.1099 69.0944 12.3425C69.851 12.5718 70.5193 12.8666 71.0958 13.2269C71.6723 13.5839 72.1276 14.036 72.4617 14.5863C72.7925 15.1333 72.9596 15.8015 72.9596 16.5877C72.9596 17.3738 72.7794 18.0814 72.4158 18.6742C72.0522 19.2671 71.5511 19.765 70.9123 20.1614C70.2736 20.5577 69.5366 20.8591 68.7013 21.0589C67.866 21.2587 66.9783 21.357 66.0382 21.357L66.0349 21.3537Z" fill="#00001F"/>
<path d="M81.5544 21.2915C81.0532 21.2915 80.5619 21.2358 80.0804 21.1212C79.5988 21.0098 79.1665 20.8067 78.7832 20.5152C78.4 20.2237 78.0953 19.8077 77.8693 19.2705C77.6433 18.7333 77.5319 18.0421 77.5319 17.1905V7.04586H73.5586V4.7431H76.107C76.4542 4.7431 76.7261 4.72999 76.9194 4.70379C77.1126 4.67758 77.2535 4.61207 77.3419 4.50398C77.4271 4.39588 77.4828 4.22883 77.5024 3.99626C77.5221 3.76369 77.5319 3.44595 77.5319 3.0365V0H80.1557V4.74637H85.2493V7.04913H80.1557V16.211C80.1557 17.0791 80.2605 17.7604 80.4702 18.2518C80.6798 18.7431 81.1515 18.9888 81.8885 18.9888C82.1866 18.9888 82.465 18.9626 82.7336 18.9134C82.9989 18.861 83.1987 18.8119 83.333 18.7595V21.0295C83.1594 21.0917 82.917 21.1507 82.6026 21.2064C82.2914 21.262 81.9409 21.2915 81.5511 21.2915H81.5544Z" fill="#00001F"/>
<path d="M87.3516 21.046V4.74651H89.959V9.74838L89.1007 9.44047C89.163 8.83775 89.3169 8.24159 89.5626 7.65198C89.8083 7.06237 90.1489 6.53172 90.5846 6.05675C91.0203 5.58179 91.564 5.20182 92.2191 4.92011C92.8743 4.63841 93.6408 4.49756 94.5219 4.49756C95.177 4.49756 95.7109 4.54997 96.127 4.65806C96.543 4.76616 96.7985 4.85133 96.9033 4.91029L96.2285 7.47182C96.127 7.39976 95.9173 7.30804 95.6061 7.19667C95.2949 7.0853 94.8527 7.02634 94.2795 7.02634C93.4311 7.02634 92.7269 7.18029 92.17 7.4882C91.6131 7.79611 91.1709 8.20228 90.8499 8.70673C90.5289 9.21445 90.2996 9.76148 90.1686 10.3576C90.0343 10.9505 89.9688 11.5401 89.9688 12.1232V21.0394H87.3614L87.3516 21.046Z" fill="#00001F"/>
<path d="M104.474 21.3374C103.308 21.3374 102.335 21.1343 101.559 20.7314C100.783 20.3285 100.164 19.8044 99.7083 19.1591C99.253 18.5138 98.932 17.8161 98.742 17.0627C98.552 16.3126 98.457 15.5854 98.457 14.8909V4.74634H101.081V14.262C101.081 15.0907 101.195 15.8572 101.425 16.5648C101.654 17.2723 102.057 17.8423 102.63 18.2746C103.203 18.7103 103.99 18.9265 104.995 18.9265C105.935 18.9265 106.761 18.6415 107.465 18.0748C108.173 17.5082 108.723 16.7973 109.122 15.9424C109.522 15.0875 109.722 14.2358 109.722 13.3874L111.242 14.0163C111.242 14.9171 111.081 15.7983 110.767 16.663C110.449 17.5278 109.997 18.314 109.407 19.0182C108.818 19.7225 108.107 20.2859 107.275 20.7052C106.44 21.1244 105.506 21.3341 104.474 21.3341V21.3374ZM109.722 21.0458V4.74634H112.329V21.0458H109.722Z" fill="#00001F"/>
<path d="M123.034 21.3538C121.478 21.3538 120.066 21.0131 118.799 20.3318C117.531 19.6505 116.525 18.6776 115.782 17.4067C115.038 16.1357 114.668 14.6289 114.668 12.8798C114.668 11.1306 115.038 9.62708 115.782 8.37579C116.525 7.1245 117.528 6.16475 118.799 5.49652C120.066 4.83157 121.478 4.50073 123.034 4.50073C124.22 4.50073 125.281 4.68089 126.211 5.04449C127.142 5.40808 127.931 5.89287 128.576 6.49558C129.222 7.0983 129.713 7.76325 130.057 8.48389C130.401 9.20452 130.571 9.92516 130.571 10.6392V10.7473H127.977C127.977 10.6982 127.97 10.6392 127.96 10.5705C127.951 10.5049 127.941 10.4362 127.931 10.3641C127.849 9.67949 127.587 9.07677 127.148 8.55923C126.709 8.04168 126.136 7.6355 125.428 7.34069C124.721 7.04589 123.918 6.89521 123.018 6.89521C122.005 6.89521 121.065 7.1114 120.2 7.54706C119.336 7.98272 118.641 8.64112 118.114 9.52553C117.587 10.41 117.324 11.5302 117.324 12.8798C117.324 14.2293 117.587 15.3398 118.107 16.2406C118.628 17.1414 119.323 17.8194 120.187 18.2747C121.052 18.73 121.996 18.9593 123.018 18.9593C124.121 18.9593 125.032 18.7857 125.749 18.4385C126.467 18.0913 127.004 17.6294 127.368 17.0496C127.731 16.4731 127.934 15.8508 127.974 15.1858H130.568C130.568 15.9228 130.404 16.6566 130.076 17.387C129.749 18.1175 129.267 18.7824 128.635 19.3819C128 19.9813 127.217 20.4596 126.28 20.8166C125.343 21.1736 124.262 21.3538 123.034 21.3538Z" fill="#00001F"/>
<path d="M139.17 21.2915C138.668 21.2915 138.177 21.2358 137.696 21.1212C137.214 21.0098 136.782 20.8067 136.398 20.5152C136.015 20.2237 135.711 19.8077 135.485 19.2705C135.259 18.7333 135.147 18.0421 135.147 17.1905V7.04586H131.174V4.7431H133.722C134.069 4.7431 134.341 4.72999 134.535 4.70379C134.728 4.67758 134.869 4.61207 134.957 4.50398C135.042 4.39588 135.098 4.22883 135.118 3.99626C135.137 3.76369 135.147 3.44595 135.147 3.0365V0H137.771V4.74637H142.865V7.04913H137.771V16.211C137.771 17.0791 137.876 17.7604 138.085 18.2518C138.295 18.7431 138.767 18.9888 139.504 18.9888C139.802 18.9888 140.08 18.9626 140.349 18.9134C140.614 18.861 140.814 18.8119 140.948 18.7595V21.0295C140.775 21.0917 140.532 21.1507 140.218 21.2064C139.907 21.262 139.556 21.2915 139.166 21.2915H139.17Z" fill="#00001F"/>
<path d="M150.98 21.3374C149.814 21.3374 148.841 21.1343 148.065 20.7314C147.289 20.3285 146.669 19.8044 146.214 19.1591C145.759 18.5138 145.438 17.8161 145.248 17.0627C145.058 16.3126 144.963 15.5854 144.963 14.8909V4.74634H147.587V14.262C147.587 15.0907 147.701 15.8572 147.931 16.5648C148.16 17.2723 148.563 17.8423 149.136 18.2746C149.709 18.7103 150.495 18.9265 151.501 18.9265C152.441 18.9265 153.267 18.6415 153.971 18.0748C154.678 17.5082 155.229 16.7973 155.628 15.9424C156.028 15.0875 156.228 14.2358 156.228 13.3874L157.748 14.0163C157.748 14.9171 157.587 15.7983 157.273 16.663C156.955 17.5278 156.503 18.314 155.913 19.0182C155.324 19.7225 154.613 20.2859 153.781 20.7052C152.946 21.1244 152.012 21.3341 150.98 21.3341V21.3374ZM156.228 21.0458V4.74634H158.835V21.0458H156.228Z" fill="#00001F"/>
<path d="M161.479 21.046V4.74651H164.086V9.74838L163.228 9.44047C163.29 8.83775 163.444 8.24159 163.69 7.65198C163.935 7.06237 164.276 6.53172 164.712 6.05675C165.147 5.58179 165.691 5.20182 166.346 4.92011C167.001 4.63841 167.768 4.49756 168.649 4.49756C169.304 4.49756 169.838 4.54997 170.254 4.65806C170.67 4.76616 170.925 4.85133 171.03 4.91029L170.355 7.47182C170.254 7.39976 170.044 7.30804 169.733 7.19667C169.422 7.0853 168.98 7.02634 168.406 7.02634C167.558 7.02634 166.854 7.18029 166.297 7.4882C165.74 7.79611 165.298 8.20228 164.977 8.70673C164.656 9.21445 164.427 9.76148 164.296 10.3576C164.161 10.9505 164.096 11.5401 164.096 12.1232V21.0394H161.488L161.479 21.046Z" fill="#00001F"/>
<path d="M172.138 13.941V11.6087H184.739L184.278 12.3752V12.0378C184.278 11.0945 184.081 10.233 183.688 9.45009C183.295 8.66722 182.709 8.04158 181.932 7.56989C181.156 7.0982 180.193 6.86235 179.046 6.86235C177.9 6.86235 176.871 7.10802 175.993 7.59937C175.112 8.09071 174.428 8.78514 173.936 9.67939C173.445 10.5736 173.199 11.6415 173.199 12.8797C173.199 14.1179 173.439 15.2217 173.913 16.1324C174.388 17.043 175.066 17.744 175.948 18.2353C176.829 18.7266 177.87 18.9723 179.079 18.9723C179.937 18.9723 180.684 18.8839 181.32 18.7037C181.955 18.5236 182.479 18.2844 182.892 17.9831C183.308 17.6817 183.622 17.3509 183.835 16.9938C184.048 16.6368 184.179 16.2765 184.219 15.9194H186.826C186.774 16.5746 186.57 17.2231 186.213 17.8684C185.856 18.5137 185.349 19.1001 184.694 19.6274C184.038 20.1548 183.236 20.5774 182.283 20.8951C181.333 21.2128 180.235 21.3701 178.997 21.3701C177.359 21.3701 175.918 21.013 174.67 20.2957C173.422 19.5783 172.443 18.5858 171.732 17.3181C171.021 16.0505 170.664 14.5928 170.664 12.9452C170.664 11.2975 171.021 9.81041 171.738 8.5493C172.456 7.28818 173.442 6.29567 174.7 5.57831C175.957 4.86095 177.395 4.50391 179.014 4.50391C180.632 4.50391 182.089 4.86095 183.295 5.57831C184.504 6.29567 185.434 7.27508 186.089 8.51654C186.744 9.758 187.072 11.1731 187.072 12.7617C187.072 12.9255 187.065 13.1417 187.055 13.407C187.045 13.6724 187.029 13.8525 187.009 13.9442H172.138V13.941Z" fill="#00001F"/>
<path d="M12.5263 20.0501C13.4074 20.1222 14.1805 20.2827 14.852 20.5349C15.5202 20.7871 16.0476 21.154 16.4243 21.6388C16.8042 22.1236 16.9909 22.7623 16.9909 23.5485C16.9909 24.4198 16.6929 25.1896 16.1 25.8578C15.5071 26.526 14.6063 27.0534 13.3976 27.4301C12.1889 27.8068 10.669 27.9968 8.83793 27.9968C6.25019 27.9968 4.29464 27.6201 2.97457 26.8699C1.65449 26.1198 0.996094 25.0913 0.996094 23.7941C0.996094 23.3847 1.04523 23.0244 1.1435 22.7132C1.24177 22.402 1.34986 22.1465 1.47433 21.9532L3.96053 22.3201C3.87864 22.4315 3.80002 22.6051 3.72141 22.8344C3.64607 23.0637 3.60676 23.3323 3.60676 23.6402C3.60676 24.4591 4.0719 25.0356 5.00218 25.3664C5.93245 25.7005 7.25253 25.8643 8.9624 25.8643C10.2399 25.8643 11.2914 25.7759 12.1103 25.6023C12.9292 25.4287 13.5384 25.1764 13.9381 24.8522C14.3377 24.5246 14.5375 24.1413 14.5375 23.6991C14.5375 23.0342 14.2591 22.6215 13.7022 22.4642C13.1454 22.307 12.4575 22.1956 11.6386 22.1334L5.43783 21.6748C4.40274 21.5929 3.56418 21.2719 2.91233 20.7151C2.26376 20.1582 1.9362 19.4801 1.9362 18.6809C1.9362 18.1895 2.05739 17.7244 2.29651 17.2855C2.53564 16.8465 2.81734 16.4764 3.14162 16.1718C3.46264 15.8704 3.75417 15.687 4.00966 15.628L6.06675 16.5648C5.81126 16.6041 5.4968 16.781 5.12337 17.0955C4.74995 17.4067 4.56324 17.7735 4.56324 18.1928C4.56324 18.5728 4.71065 18.8807 5.00873 19.1231C5.30681 19.3622 5.89315 19.5195 6.77429 19.5915L12.5296 20.0534L12.5263 20.0501ZM14.7832 4.74968H17.2399L16.2277 11.1633C16.0443 12.3589 15.661 13.4432 15.078 14.4095C14.4949 15.3758 13.6989 16.1423 12.6901 16.7122C11.6812 17.2789 10.4364 17.5639 8.95258 17.5639C7.46872 17.5639 6.08641 17.2822 4.99235 16.7188C3.89829 16.1554 3.05973 15.3856 2.47667 14.4095C1.89361 13.4333 1.60208 12.3295 1.60208 11.1011C1.60208 9.87275 1.90672 8.72956 2.51598 7.73377C3.12525 6.73471 3.97036 5.94856 5.05459 5.36877C6.13882 4.79226 7.38355 4.50073 8.78224 4.50073C10.0401 4.50073 11.1407 4.71692 12.0808 5.15258C13.0209 5.58824 13.7677 6.13199 14.3148 6.78712C14.8618 7.44224 15.1664 8.10064 15.2287 8.76559L14.246 8.82783L14.7832 4.7464V4.74968ZM8.9362 15.2317C9.92871 15.2317 10.7804 15.0679 11.4912 14.7403C12.202 14.4128 12.749 13.9378 13.1323 13.3122C13.5155 12.6865 13.7088 11.9298 13.7088 11.0389C13.7088 10.1479 13.5188 9.43382 13.1323 8.8049C12.749 8.17598 12.202 7.69119 11.4912 7.34725C10.7804 7.00331 9.93199 6.83297 8.95258 6.83297C7.97316 6.83297 7.18046 7.00986 6.45983 7.36362C5.73919 7.71739 5.17579 8.20873 4.77288 8.8442C4.36998 9.47967 4.16689 10.2265 4.16689 11.0847C4.16689 11.9429 4.36016 12.6996 4.7434 13.3187C5.12665 13.9378 5.67368 14.4095 6.38449 14.737C7.0953 15.0646 7.94696 15.2284 8.93947 15.2284L8.9362 15.2317Z" fill="#00001F"/>
<path d="M19.9682 13.941V11.6087H32.5695L32.1076 12.3752V12.0378C32.1076 11.0945 31.9111 10.233 31.518 9.45009C31.1249 8.66722 30.5386 8.04158 29.7623 7.56989C28.986 7.0982 28.0229 6.86235 26.8765 6.86235C25.73 6.86235 24.7014 7.10802 23.8236 7.59937C22.9424 8.09071 22.2578 8.78514 21.7665 9.67939C21.2751 10.5736 21.0295 11.6415 21.0295 12.8797C21.0295 14.1179 21.2686 15.2217 21.7436 16.1324C22.2185 17.043 22.8966 17.744 23.7777 18.2353C24.6589 18.7266 25.7005 18.9723 26.9092 18.9723C27.7674 18.9723 28.5143 18.8839 29.1497 18.7037C29.7852 18.5236 30.3093 18.2844 30.722 17.9831C31.138 17.6817 31.4525 17.3509 31.6654 16.9938C31.8783 16.6368 32.0093 16.2765 32.0487 15.9194H34.656C34.6036 16.5746 34.4006 17.2231 34.0435 17.8684C33.6865 18.5137 33.1787 19.1001 32.5236 19.6274C31.8685 20.1548 31.066 20.5774 30.1128 20.8951C29.1628 21.2128 28.0655 21.3701 26.8273 21.3701C25.1895 21.3701 23.7482 21.013 22.5002 20.2957C21.2522 19.5783 20.2728 18.5858 19.562 17.3181C18.8512 16.0505 18.4941 14.5928 18.4941 12.9452C18.4941 11.2975 18.8512 9.81041 19.5685 8.5493C20.2859 7.28818 21.2719 6.29567 22.5297 5.57831C23.7875 4.86095 25.2255 4.50391 26.8437 4.50391C28.4619 4.50391 29.9195 4.86095 31.1249 5.57831C32.3336 6.29567 33.2639 7.27508 33.919 8.51654C34.5742 9.758 34.9017 11.1731 34.9017 12.7617C34.9017 12.9255 34.8952 13.1417 34.8853 13.407C34.8755 13.6724 34.8591 13.8525 34.8395 13.9442H19.9682V13.941Z" fill="#00001F"/>
<path d="M43.1736 21.2915C42.6725 21.2915 42.1811 21.2358 41.6996 21.1212C41.2181 21.0098 40.7857 20.8067 40.4025 20.5152C40.0192 20.2237 39.7146 19.8077 39.4886 19.2705C39.2626 18.7333 39.1512 18.0421 39.1512 17.1905V7.04586H35.1779V4.7431H37.7263C38.0735 4.7431 38.3454 4.72999 38.5386 4.70379C38.7319 4.67758 38.8728 4.61207 38.9612 4.50398C39.0464 4.39588 39.102 4.22883 39.1217 3.99626C39.1414 3.76369 39.1512 3.44595 39.1512 3.0365V0H41.775V4.74637H46.8685V7.04913H41.775V16.211C41.775 17.0791 41.8798 17.7604 42.0894 18.2518C42.2991 18.7431 42.7707 18.9888 43.5078 18.9888C43.8058 18.9888 44.0843 18.9626 44.3529 18.9134C44.6182 18.861 44.818 18.8119 44.9523 18.7595V21.0295C44.7787 21.0917 44.5363 21.1507 44.2218 21.2064C43.9107 21.262 43.5602 21.2915 43.1704 21.2915H43.1736Z" fill="#00001F"/>
</svg>
